<svg width="24" height="25" viewBox="0 0 24 25" fill="none" xmlns="http://www.w3.org/2000/svg">
<path d="M12 2.81934C6.5 2.81934 2 7.30934 2 12.8394C2 17.8394 5.66 21.9894 10.44 22.7394V15.7394H7.9V12.8394H10.44V10.6293C10.44 8.11934 11.93 6.73934 14.22 6.73934C15.31 6.73934 16.45 6.92934 16.45 6.92934V9.39934H15.19C13.95 9.39934 13.56 10.1693 13.56 10.9594V12.8394H16.34L15.89 15.7394H13.56V22.7394C15.9164 22.3672 18.0622 21.1649 19.6099 19.3494C21.1576 17.534 22.0054 15.225 22 12.8394C22 7.30934 17.5 2.81934 12 2.81934Z" fill="black"/>
</svg>
