<svg width="192" height="47" viewBox="0 0 192 47" fill="none" xmlns="http://www.w3.org/2000/svg">
<path d="M0 46.2979C0.730511 46.2551 1.46003 46.1914 2.16267 46.0033C2.86631 45.8252 3.53313 45.5425 4.17008 45.1952C4.80804 44.8518 5.43504 44.4597 6.12574 44.1651C6.81246 43.8656 7.55094 43.6785 8.29339 43.5789C9.77332 43.3978 11.304 43.4436 12.763 43.9233C13.4896 44.1621 14.1584 44.5234 14.8013 44.8499C15.4452 45.1793 16.0852 45.457 16.7609 45.6222C17.4357 45.7854 18.1324 45.875 18.841 45.869C19.5466 45.8799 20.2563 45.8371 20.935 45.7038C21.6178 45.5774 22.2667 45.3525 22.8966 45.0409C23.5276 44.7334 24.1586 44.3473 24.8613 44.0318C25.5599 43.7113 26.3203 43.4943 27.0826 43.3769C27.847 43.2784 28.6064 43.2405 29.3677 43.2813C30.1271 43.3251 30.9024 43.4197 31.6469 43.6585C32.3933 43.8855 33.0919 44.2358 33.7359 44.5811C34.3798 44.9285 34.9949 45.239 35.6487 45.442C36.2986 45.656 36.9883 45.7436 37.685 45.7884C38.3847 45.8312 39.0923 45.7973 39.779 45.7127C40.4637 45.6092 41.1206 45.4221 41.7586 45.1464C42.3975 44.8737 43.0235 44.5055 43.7122 44.1811C44.3989 43.8536 45.1494 43.6058 45.9067 43.4794C46.6661 43.345 47.4265 43.3082 48.1819 43.3381C48.9363 43.351 49.7006 43.4704 50.4411 43.6695C51.1835 43.8705 51.8862 44.202 52.5331 44.5563C53.183 44.9106 53.8 45.2579 54.4579 45.5037C55.7657 45.9974 57.2327 46.0979 58.6539 45.9864C59.3645 45.9267 60.0641 45.7804 60.7339 45.5286C61.4057 45.2818 62.0437 44.9295 62.7095 44.612C63.3743 44.2935 64.077 44.0288 64.8045 43.8944C65.531 43.7591 66.2685 43.7212 67 43.7471C65.534 43.7859 64.0909 44.1313 62.8299 44.8479C62.192 45.1922 61.565 45.5843 60.8752 45.8789C60.1885 46.1785 59.452 46.3726 58.7086 46.4731C57.2287 46.6483 55.697 46.6045 54.2389 46.1208C53.5124 45.8829 52.8426 45.5226 52.1997 45.1952C51.5558 44.8648 50.9168 44.5871 50.241 44.4229C49.5663 44.2627 48.8706 44.1691 48.162 44.1761C47.4563 44.1631 46.7467 44.2069 46.068 44.3403C45.3852 44.4667 44.7363 44.6906 44.1073 45.0031C43.4763 45.3107 42.8454 45.6968 42.1427 46.0123C41.4441 46.3328 40.6827 46.5477 39.9213 46.6672C39.157 46.7657 38.3976 46.8045 37.6362 46.7627C36.8759 46.7189 36.1016 46.6244 35.3571 46.3855C34.6107 46.1576 33.912 45.8083 33.2681 45.4619C32.6252 45.1136 32.0091 44.8041 31.3552 44.601C30.7053 44.3881 30.0146 44.3005 29.318 44.2557C28.6183 44.2129 27.9107 44.2467 27.224 44.3303C26.5392 44.4338 25.8814 44.619 25.2444 44.8946C24.6055 45.1663 23.9795 45.5356 23.2908 45.86C22.605 46.1875 21.8546 46.4353 21.0962 46.5617C20.3369 46.696 19.5775 46.7329 18.8221 46.703C18.0677 46.6891 17.3034 46.5736 16.5639 46.3726C15.8214 46.1705 15.1198 45.8411 14.4719 45.4868C13.821 45.1335 13.2049 44.7832 12.5481 44.5373C11.2383 44.0477 9.77233 43.9462 8.35211 44.0626C7.6415 44.1213 6.93886 44.2607 6.27005 44.5125C5.59826 44.7593 4.96031 45.1126 4.29349 45.4291C3.62867 45.7486 2.92503 46.0063 2.19949 46.1487C1.47296 46.292 0.734492 46.3039 0.00398099 46.2969" fill="#29121C"/>
<path d="M45.5932 34.1697H40.7324L38.2104 37.2609H43.0722L45.5932 34.1697Z" fill="#29121C"/>
<path d="M25.4057 37.2609L27.9277 34.1697H23.0659L20.5439 37.2609H25.4057Z" fill="#29121C"/>
<path d="M18.7007 38.2612H8.44367C8.79798 38.6872 9.18015 39.0893 9.58721 39.4665C9.15328 39.4754 8.72135 39.5083 8.29339 39.561C7.55094 39.6605 6.81346 39.8467 6.12574 40.1472C5.43604 40.4418 4.80804 40.8329 4.17008 41.1763C3.53313 41.5236 2.86631 41.8063 2.16267 41.9844C1.46102 42.1735 0.730511 42.2362 0 42.279C0.730511 42.286 1.46898 42.2731 2.19551 42.1307C2.92105 41.9894 3.62469 41.7307 4.28951 41.4112C4.95533 41.0947 5.59329 40.7414 6.26607 40.4946C6.93587 40.2428 7.63852 40.1034 8.34813 40.0447C9.76834 39.9293 11.2343 40.0298 12.5441 40.5204C13.201 40.7663 13.818 41.1166 14.4679 41.4699C14.8371 41.6719 15.2243 41.865 15.6254 42.0312L18.7007 38.2612Z" fill="#29121C"/>
<path d="M38.5887 42.7558L42.2561 38.2612H37.3944L34.3539 41.9874C34.6763 42.1317 35.0098 42.2631 35.3531 42.3676C36.0985 42.6065 36.8729 42.701 37.6322 42.7448C37.9507 42.7617 38.2692 42.7647 38.5887 42.7558Z" fill="#29121C"/>
<path d="M28.879 40.2219L30.4784 38.2612H25.6166L22.397 42.2074C22.7025 42.1009 23.0001 41.9795 23.2867 41.8421C23.9754 41.5177 24.6024 41.1494 25.2404 40.8767C25.8774 40.6011 26.5352 40.4159 27.2199 40.3124C27.7643 40.2458 28.3217 40.2119 28.878 40.2209L28.879 40.2219Z" fill="#29121C"/>
<path d="M33.6186 41.6302L36.3675 38.2603H31.5057L29.8566 40.2826C30.3681 40.3363 30.8717 40.4249 31.3524 40.5832C32.0063 40.7862 32.6224 41.0957 33.2653 41.444C33.3807 41.5058 33.4992 41.5685 33.6186 41.6302Z" fill="#29121C"/>
<path d="M21.0952 42.5438L24.5895 38.2603H19.7277L16.4205 42.3139C16.4663 42.3278 16.5131 42.3418 16.5589 42.3547C17.2993 42.5557 18.0637 42.6712 18.8171 42.6851C19.5725 42.716 20.3328 42.6782 21.0912 42.5438C21.0912 42.5438 21.0922 42.5438 21.0932 42.5438H21.0952Z" fill="#29121C"/>
<path d="M64.8026 39.8765C64.0751 40.0109 63.3724 40.2756 62.7076 40.5941C62.1871 40.8419 61.6825 41.1116 61.1669 41.3355C60.4046 40.3712 59.7427 39.3431 59.1993 38.2612H43.2834L39.6796 42.6781C39.7592 42.6692 39.8378 42.6602 39.9174 42.6493C40.6788 42.5308 41.4402 42.3159 42.1388 41.9944C42.8415 41.6799 43.4725 41.2928 44.1034 40.9852C44.7334 40.6737 45.3813 40.4488 46.0641 40.3224C46.7428 40.189 47.4524 40.1452 48.1581 40.1582C48.8677 40.1502 49.5624 40.2438 50.2381 40.405C50.9139 40.5692 51.5539 40.8479 52.1968 41.1773C52.8397 41.5047 53.5095 41.865 54.236 42.1029C55.6941 42.5866 57.2258 42.6314 58.7057 42.4552C59.4481 42.3547 60.1856 42.1596 60.8723 41.861C61.5621 41.5664 62.1891 41.1743 62.827 40.83C64.088 40.1134 65.5311 39.768 66.9971 39.7292C66.2656 39.7033 65.5281 39.7412 64.8016 39.8765H64.8026Z" fill="#29121C"/>
<path d="M7.69328 37.261H19.5178L22.0398 34.1708H15.1915C14.5555 34.1708 14.3485 33.3169 14.9118 33.0233C17.2795 31.7912 18.9057 30.4257 19.9557 29.3439C20.0821 29.3807 20.2234 29.3628 20.3389 29.2792L20.7828 28.9587C20.9311 28.8522 21.0843 28.7527 21.2436 28.6651C25.1061 26.5323 29.1816 25.8038 32.9148 25.7868V33.5717C32.9148 33.9031 32.6471 34.1698 32.3157 34.1698H28.9547L26.4328 37.26H31.2946L33.9947 33.9499C33.9021 33.8374 33.8593 33.6931 33.8593 33.5468L33.8623 25.7968C36.86 25.8784 39.5959 26.3959 41.7675 26.9712C40.5812 28.9786 38.5061 31.6588 35.0695 33.8931L32.3226 37.26H37.1844L39.7064 34.1698H37.0749C36.5027 34.1698 36.2588 33.4453 36.7137 33.0949C39.364 31.0497 41.048 28.7945 42.0681 27.0518C43.9571 27.5683 45.3863 28.1177 46.1397 28.4312C46.269 28.485 46.4054 28.4889 46.5298 28.4531C46.9339 29.9519 47.6574 31.6916 48.9512 33.291C49.2369 33.6453 48.992 34.1698 48.5372 34.1698H46.6224L44.1004 37.26H58.7365C57.7512 34.9899 57.2357 32.5306 57.2357 30.0216V28.69C57.9094 28.5238 58.4071 27.9157 58.3921 27.1872C58.3742 26.3979 57.7263 25.7371 56.9371 25.7052C56.0712 25.6714 55.3596 26.3621 55.3596 27.221C55.3596 27.7913 55.6771 28.2819 56.1429 28.5407C55.7488 31.4796 53.399 33.7956 50.4431 34.128C50.261 34.1489 50.0778 34.0882 49.9495 33.9588C48.165 32.1514 47.2573 30.0455 46.7955 28.2909C46.8572 28.2252 46.905 28.1456 46.9329 28.052C49.3742 19.6929 47.3001 12.1749 46.8881 10.8343C46.8463 10.6989 46.7577 10.5825 46.6373 10.5068C44.7493 9.31949 42.8275 8.29936 40.9166 7.42354C40.9166 7.42354 40.9176 7.42354 40.9186 7.42354L33.6792 0.120425C33.6035 0.0427956 33.498 0 33.3895 0C33.2602 0 33.1387 0.06071 33.0631 0.16322L30.357 3.79886C30.357 3.79886 30.36 3.80085 30.361 3.80085C25.1151 2.5329 20.8057 2.20348 18.7664 2.11888C18.2708 2.09798 17.9692 2.66228 18.2668 3.06038C20.9957 6.70796 22.1045 10.7477 22.3493 14.5565L10.3516 30.6725C10.0809 31.0358 9.52553 30.987 9.31752 30.5849C8.84279 29.6723 8.57407 28.6342 8.57407 27.5325C8.57407 26.4308 8.76416 25.342 9.13141 24.3119C9.25383 23.9685 9.57529 23.7386 9.93955 23.7386H9.94552C11.0602 23.7386 11.9569 22.8091 11.9062 21.6844C11.8604 20.6842 11.0383 19.8621 10.0381 19.8164C8.91146 19.7636 7.9829 20.6623 7.9829 21.777C7.9829 21.9741 8.01574 22.1631 8.07147 22.3423C8.15507 22.607 8.11029 22.8947 7.93711 23.1136C7.28722 23.9307 6.75377 24.8264 6.35965 25.7789C5.79933 27.1384 5.49976 28.6084 5.49976 30.1032C5.49976 32.7566 6.30889 35.2208 7.69328 37.262M33.8593 1.28486C33.8593 1.06292 34.127 0.953446 34.2833 1.11169L40.1732 7.09014C38.0254 6.14465 35.8986 5.37732 33.8593 4.75628V1.28486ZM32.467 1.466C32.6093 1.27392 32.9138 1.37543 32.9138 1.61429V4.47562C32.1515 4.25667 31.403 4.05862 30.6715 3.87748L32.467 1.465V1.466ZM20.4165 27.3643C20.2543 27.8261 20.0204 28.258 19.7228 28.6462C19.6054 28.7994 19.6004 29.0114 19.7099 29.1697C19.7029 29.1627 19.695 29.1557 19.689 29.1478C18.3982 30.4565 16.2554 32.1883 12.9999 33.5985C12.8407 33.6672 12.6596 33.6642 12.5013 33.5936C11.7569 33.2601 11.0841 32.7954 10.5168 32.2271C10.4521 32.1634 10.3894 32.0977 10.3287 32.031C10.1316 31.815 10.1167 31.4896 10.2909 31.2547L22.3732 15.0252C22.607 20.0881 21.353 24.6951 20.4155 27.3643H20.4165ZM43.338 24.1258L43.2813 24.1029L43.4236 24.1507L43.338 24.1258ZM39.7392 12.9621C39.8905 13.7324 40.003 14.5097 40.0975 15.29C40.2637 15.3298 40.4299 15.3696 40.5961 15.4104C42.3199 15.8354 44.0168 16.3718 45.6749 16.9968C44.813 16.7848 43.971 16.5111 43.1051 16.325C42.2502 16.1001 41.3874 15.907 40.5235 15.7239C40.3961 15.697 40.2677 15.6712 40.1403 15.6443C40.1672 15.8821 40.194 16.12 40.2189 16.3589C40.3095 17.5004 40.3563 18.6459 40.3254 19.7905C40.3204 20.0164 40.3105 20.2423 40.2986 20.4672C41.037 20.5777 41.7685 20.732 42.5 20.8773C43.345 21.0604 44.177 21.3013 45.0081 21.5292C43.4326 21.2415 41.8641 20.9499 40.2796 20.7788C40.2229 21.5919 40.1194 22.402 39.9751 23.2022C39.9741 22.6289 40.0318 22.0636 40.0129 21.4933C40.0199 21.2455 40.0219 20.9987 40.0209 20.7519C39.9821 20.7479 39.9442 20.7429 39.9054 20.7399C38.4006 20.5628 36.8878 20.4712 35.3751 20.4483C35.2974 21.3878 35.1531 22.3204 34.971 23.241C34.9939 22.5792 35.0914 21.9283 35.0855 21.2684L35.1173 20.4463C34.9999 20.4454 34.8834 20.4434 34.766 20.4434C33.0492 20.4016 31.3324 20.512 29.6225 20.6673C29.526 20.6762 29.4305 20.6872 29.3339 20.6971C29.309 20.8564 29.2852 21.0146 29.2633 21.1739C29.105 21.9283 28.9368 22.6797 28.7557 23.4261L29.0592 21.143C29.0712 21.0017 29.0841 20.8614 29.098 20.72C27.5634 20.8833 26.0337 21.1152 24.5229 21.4595C26.0168 20.9569 27.5684 20.6404 29.1289 20.4125C29.1836 19.894 29.2404 19.3765 29.2593 18.8559C29.3489 17.3302 29.3747 15.8015 29.2563 14.2808C29.2493 14.1683 29.2394 14.0559 29.2314 13.9424C28.6283 13.8757 28.0252 13.811 27.4211 13.7553C26.5413 13.6588 25.6585 13.5901 24.7757 13.5174C26.2546 13.4916 27.7336 13.5513 29.2095 13.6518C29.0951 12.343 28.8881 11.0433 28.5855 9.76436C28.4561 9.22295 28.3128 8.68353 28.1416 8.15306C26.6239 7.8734 25.0962 7.63852 23.5575 7.46734C25.0583 7.50018 26.5552 7.64747 28.0431 7.85747C28.0102 7.76093 27.9754 7.66539 27.9406 7.56885C27.6928 6.8463 27.3972 6.13868 27.0299 5.46291C27.5494 6.21631 27.9575 7.03938 28.2929 7.8933C28.6432 7.94505 28.9935 7.9978 29.3429 8.05553C30.8268 8.29737 32.2968 8.61585 33.7548 8.98409C33.6473 8.53523 33.5299 8.08837 33.4095 7.64051C33.6005 8.09633 33.7717 8.56012 33.929 9.02788C34.2962 9.12144 34.6625 9.21797 35.0277 9.3175C36.3842 9.70664 37.7318 10.1326 39.0565 10.6203C39.0017 10.2938 38.946 9.96739 38.8883 9.63996C39.0037 9.98133 39.1082 10.3267 39.2048 10.674C39.6526 10.8412 40.0975 11.0144 40.5384 11.1975C42.3458 11.9101 44.0845 12.7839 45.7754 13.7264C44.0049 12.9392 42.2433 12.144 40.422 11.4981C40.0567 11.3587 39.6885 11.2284 39.3192 11.099C39.4785 11.7141 39.6158 12.3361 39.7392 12.9591V12.9621Z" fill="#29121C"/>
<path d="M35.2079 14.7446C35.2338 14.9407 35.2597 15.1368 35.2835 15.3328C35.4169 16.6505 35.4826 17.9782 35.4348 19.3029C35.4298 19.5487 35.4179 19.7945 35.403 20.0393C36.9227 20.0861 38.4425 20.1827 39.9443 20.4195C39.9682 20.4225 39.9921 20.4265 40.0159 20.4295C40.013 20.2165 40.008 20.0045 40.001 19.7915C39.9652 18.6579 39.9224 17.5253 39.8 16.3967C39.7791 16.1181 39.7552 15.8394 39.7283 15.5607C38.2623 15.2602 36.7933 14.9765 35.3114 14.7625C35.2766 14.7566 35.2417 14.7516 35.2069 14.7456L35.2079 14.7446Z" fill="#29121C"/>
<path d="M30.0923 13.7165C31.6469 13.8399 33.1955 14.034 34.7392 14.256C34.6197 13.3294 34.4655 12.4068 34.2923 11.4882C34.1709 10.8433 34.0375 10.1993 33.8862 9.55938C33.8763 9.51559 33.8663 9.4718 33.8564 9.42702C32.3466 9.02095 30.8189 8.67859 29.2852 8.37305C28.9946 8.31532 28.703 8.2586 28.4114 8.20386C28.5925 8.69053 28.7518 9.18617 28.8971 9.68379C29.2693 10.9896 29.4852 12.3321 29.6226 13.6817C29.7788 13.6936 29.9361 13.7046 30.0923 13.7165Z" fill="#29121C"/>
<path d="M34.8665 15.3776C34.8446 15.1437 34.8187 14.9098 34.7908 14.677C33.2203 14.4252 31.6409 14.2241 30.0604 14.036C29.9241 14.0201 29.7877 14.0052 29.6514 13.9902C29.6594 14.0778 29.6683 14.1644 29.6763 14.252C29.7111 15.0253 29.7479 15.7976 29.7171 16.5699C29.7191 17.3432 29.6574 18.1135 29.5827 18.8819C29.5379 19.3825 29.4613 19.8791 29.3837 20.3757C29.4513 20.3668 29.518 20.3558 29.5857 20.3469C31.3025 20.121 33.0362 20.0165 34.7689 20.0234C34.8864 20.0264 35.0038 20.0294 35.1203 20.0324L35.1123 19.2999C35.0924 17.9891 35.0317 16.6794 34.8665 15.3786V15.3776Z" fill="#29121C"/>
<path d="M37.6899 10.5425C36.7663 10.2639 35.8487 9.96232 34.9142 9.72246C34.6355 9.64085 34.3559 9.56223 34.0752 9.4856C34.2742 10.1235 34.4484 10.7695 34.6057 11.4194C34.8376 12.3738 35.0097 13.3422 35.1481 14.3145C35.2247 14.3255 35.3003 14.3364 35.377 14.3484C36.8231 14.5852 38.2622 14.8639 39.6904 15.1943C39.6127 14.4668 39.5182 13.7403 39.4217 13.0147C39.3311 12.3539 39.2306 11.6931 39.1231 11.0332C38.6464 10.868 38.1677 10.7078 37.6899 10.5425Z" fill="#29121C"/>
<path d="M98.2284 37.0305L95.3118 29.9791H85.6018L82.5751 37.0305H77L88.3704 9.74878H92.3572L103.802 37.0305H98.2265H98.2284ZM90.3648 16.8743L87.4482 25.144H93.2814L90.3648 16.8743Z" fill="#29121C"/>
<path d="M120.785 37.0305L113.624 26.5824V37.0305H108.567V9.74878H116.43C120.159 9.74878 122.115 10.2649 123.888 11.7792C125.77 13.3656 126.766 15.73 126.766 18.4986C126.766 22.7435 124.552 25.7341 119.641 26.9524L127.024 37.0305H120.785ZM115.874 14.5858H113.622V22.7815H116.096C120.009 22.7815 121.671 21.5253 121.671 18.6466C121.671 16.2101 120.675 14.5858 115.876 14.5858" fill="#29121C"/>
<path d="M145.41 37.5107C137.031 37.5107 130.569 31.3094 130.569 23.3338C130.569 15.3582 136.957 9.2688 144.93 9.2688C150.873 9.2688 156.485 12.8496 158.257 17.7605H152.314C150.615 15.398 147.995 14.1418 144.82 14.1418C139.431 14.1418 135.664 18.2767 135.664 23.4078C135.664 28.5389 139.761 32.6377 145.114 32.6377C148.695 32.6377 151.648 30.8653 153.126 27.8387H141.83V23.1137H159.659V23.7778C159.659 31.1974 153.458 37.5107 145.41 37.5107Z" fill="#29121C"/>
<path d="M177.935 37.5107C169.923 37.5107 163.574 31.2714 163.574 23.4078C163.574 15.5442 169.849 9.2688 177.971 9.2688C186.093 9.2688 192 15.5821 192 23.3717C192 31.1614 185.873 37.5107 177.935 37.5107ZM177.899 14.1418C172.656 14.1418 168.669 18.1287 168.669 23.4078C168.669 28.6869 172.73 32.6377 177.899 32.6377C183.068 32.6377 186.907 28.6869 186.907 23.4457C186.907 18.2046 182.956 14.1418 177.899 14.1418Z" fill="#29121C"/>
</svg>
