<svg width="109" height="33" viewBox="0 0 109 33" fill="none" xmlns="http://www.w3.org/2000/svg">
<path d="M0.0268555 23.1407V10.1206C0.0268555 6.15701 2.01673 3.89209 5.85978 3.89209C9.70284 3.89209 11.6927 6.15701 11.6927 10.1206V12.2432H7.99587V9.87071C7.99587 8.10243 7.21391 7.42865 5.96786 7.42865C4.7218 7.42865 3.93984 8.10243 3.93984 9.87071V23.4222C3.93984 25.1905 4.7218 25.8295 5.96786 25.8295C7.21391 25.8295 7.99587 25.1937 7.99587 23.4222V18.5729H6.04097V15.0332H11.6959V23.1376C11.6959 27.1012 9.70601 29.3661 5.86296 29.3661C2.0199 29.3661 0.0268555 27.1043 0.0268555 23.1407Z" fill="#291921"/>
<path d="M14.2134 4.24634H20.0082C24.061 4.24634 25.8029 6.12217 25.8029 9.94343V11.465C25.8029 14.0114 24.986 15.6405 23.2441 16.3491V16.4187C25.199 17.0197 25.8411 18.8607 25.8411 21.6571V26.0098C25.8411 27.2118 25.876 28.0976 26.267 29.0181H22.2841C22.0711 28.3823 21.9281 27.9932 21.9281 25.975V21.4452C21.9281 19.1454 21.251 18.4021 19.4741 18.4021H18.1232V29.0181H14.2134V4.24634ZM19.5472 14.8623C21.0063 14.8623 21.8931 14.2265 21.8931 12.2431V10.3325C21.8931 8.56423 21.2892 7.78606 19.9033 7.78606H18.1264V14.8623H19.5472Z" fill="#291921"/>
<path d="M31.5658 4.24634H36.8647L40.9175 29.0149H37.0077L36.2957 24.096V24.1656H31.8519L31.1398 29.0149H27.5129L31.5658 4.24634ZM35.8316 20.8062L34.0897 8.56423H34.0198L32.3128 20.8062H35.8316Z" fill="#291921"/>
<path d="M42.7997 4.24634H48.7025C52.7554 4.24634 54.4973 6.12217 54.4973 9.94342V10.9335C54.4973 13.48 53.7154 15.0743 51.9734 15.7829V15.8525C54.0714 16.561 54.8883 18.3989 54.8883 21.0181V23.1407C54.8883 26.9619 52.8603 29.0149 48.9505 29.0149H42.7997V4.24634ZM48.2384 14.3309C49.6975 14.3309 50.5843 13.6951 50.5843 11.7117V10.3325C50.5843 8.56423 49.9804 7.78606 48.5945 7.78606H46.7095V14.3309H48.2384ZM48.9505 25.4783C50.2665 25.4783 50.9785 24.8773 50.9785 23.0363V20.8789C50.9785 18.5792 50.2315 17.8706 48.4546 17.8706H46.7127V25.4783H48.9537H48.9505Z" fill="#291921"/>
<path d="M71.7097 23.2134C69.8946 25.2664 69.7198 25.548 69.8597 25.7979C69.9296 25.9402 70.0377 26.0098 70.0727 26.0098C70.2157 25.9402 70.6067 26.4337 70.5336 26.5412C70.4636 26.576 70.5336 26.576 70.6416 26.5412C70.7465 26.5064 70.9627 26.576 71.1026 26.7532C71.2424 26.9303 71.2806 26.9999 71.1725 26.9651C71.1026 26.8955 71.3505 27.2498 71.7415 27.7433C72.1325 28.2399 72.4535 28.7682 72.4535 28.9105C72.4885 29.0877 72.5234 29.3692 72.5234 29.5464C72.5584 29.7931 72.4885 29.9006 72.3105 29.9354C72.1674 29.9702 71.9894 30.0778 71.8845 30.1474C71.7415 30.2897 70.8546 30.3245 70.6385 30.217C70.6035 30.1822 70.5685 30.1474 70.0345 30.0398C69.7866 29.9702 69.5005 29.8975 69.3606 29.8627C69.2176 29.8279 68.7217 29.4736 68.2576 29.0497C67.7967 28.6606 67.3676 28.3411 67.2976 28.3411C67.2627 28.3411 66.7636 28.765 66.1946 29.2965C64.9486 30.4637 64.0268 31.0299 62.4247 31.631C61.4647 32.0201 61.1087 32.0928 60.1837 32.0548C59.5098 32.0548 58.9027 31.9853 58.5848 31.8429C56.9128 31.1691 56.4169 30.4637 56.4519 28.6575C56.4519 26.8892 57.0559 25.4024 58.8709 22.9952L59.9739 21.4736L59.4749 20.8726C58.9059 20.2368 57.5549 17.9719 57.2688 17.2285C57.1258 16.7698 57.3038 14.856 57.5517 14.6093C57.6598 14.5397 57.6948 14.5397 57.6948 14.6789C57.6948 14.8181 57.7297 14.8212 57.8378 14.6441C57.9077 14.5017 57.9427 14.3246 57.8728 14.255C57.8378 14.1475 57.8378 14.1127 57.9427 14.1854C58.0508 14.255 58.4767 13.5496 58.3337 13.442C58.3337 13.4072 58.5117 13.1225 58.7596 12.8062C59.4335 11.9585 59.1856 11.9933 58.3687 12.8758C57.9777 13.3345 57.7297 13.5116 57.8346 13.3345C58.4036 12.2368 62.0655 9.61762 63.2734 9.47844C63.4864 9.47844 63.6993 9.37089 63.7375 9.30129C63.7725 9.2317 64.0204 9.19374 64.3065 9.19374C64.6975 9.19374 64.8405 9.12415 64.8405 8.9818C64.8405 8.87425 64.9104 8.76986 64.9836 8.76986C65.0884 8.76986 65.3046 8.73506 65.5176 8.70027C65.7655 8.63068 65.8005 8.66547 65.6606 8.76986C65.4826 8.87741 65.4826 8.91221 65.7305 8.87741C65.9086 8.87741 66.0166 8.80782 65.9785 8.76986C65.9435 8.73507 66.1565 8.70027 66.4394 8.70027C66.7954 8.66547 66.8653 8.70027 66.6524 8.76986C66.4744 8.83945 66.7954 8.87741 67.4693 8.83945C68.9983 8.80466 69.6753 9.05139 70.6703 10.0067C71.2392 10.5729 71.4522 10.8545 71.3823 11.0696C71.3473 11.2119 71.3823 11.3543 71.4522 11.3891C71.7383 11.601 71.0263 13.8659 70.5272 14.3626C70.4191 14.4701 70.3492 14.6093 70.3492 14.6821C70.3492 14.7548 69.9233 15.3906 69.3892 16.096C68.8552 16.8394 68.1813 17.7599 67.8952 18.149C67.5742 18.5729 67.0783 19.2119 66.7922 19.6358C66.5061 20.0249 66.0452 20.6259 65.7973 20.9454C65.5843 21.2997 65.3714 21.5812 65.3714 21.6539C65.3714 21.7963 66.5093 22.856 66.6524 22.856C66.7604 22.856 67.1514 22.4321 67.6123 21.9355C69.0714 20.2368 69.6753 19.6706 69.9582 19.7402C70.1013 19.775 70.2062 19.8825 70.2062 19.9869C70.2062 20.1988 70.3842 20.1988 70.5971 19.9869C70.7402 19.8793 70.7752 19.8793 70.7052 19.9869C70.5971 20.164 71.3791 20.4835 71.5571 20.376C71.627 20.3412 71.7002 20.3412 71.7701 20.4108C71.805 20.5183 72.196 20.5183 72.6601 20.4804C73.2641 20.4456 73.4421 20.4804 73.4421 20.6227C73.4421 20.7303 73.512 20.8347 73.5851 20.8694C73.6932 20.8694 72.8381 21.9323 71.7002 23.204L71.7097 23.2134ZM57.094 15.8873C57.2021 15.7449 57.272 14.6852 57.129 14.7548C57.094 14.7896 57.0209 15.0743 57.0209 15.3906C57.0209 15.6753 57.0559 15.8873 57.0908 15.8873H57.094ZM57.307 14.3657C57.307 14.507 57.343 14.5186 57.415 14.4005C57.5931 14.1538 57.5931 13.9766 57.415 14.081C57.3451 14.1158 57.307 14.2582 57.307 14.3657ZM64.3478 25.5132L63.8487 25.0545C63.1749 24.4883 63.0318 24.4883 62.8188 24.9849C62.7139 25.1968 62.5709 25.4815 62.4628 25.5511C62.2149 25.7631 61.0769 27.9932 61.0769 28.2747C61.0769 28.5942 61.2549 28.4171 62.9619 26.8228L64.3478 25.5132ZM65.2378 14.5429C65.3078 14.4005 65.4508 14.2961 65.5207 14.3657C65.6288 14.4005 65.6638 14.4005 65.5907 14.2961C65.4476 14.0842 66.1247 13.0213 66.3027 13.1289C66.4108 13.1985 66.4108 13.1289 66.3726 12.9865C66.3027 12.8442 66.3377 12.7746 66.4076 12.8442C66.4775 12.879 66.5506 12.8442 66.5506 12.7018C66.5157 12.5595 66.5856 12.4899 66.6555 12.4899C66.7255 12.4899 66.7986 12.4203 66.7986 12.278C66.8336 12.1704 66.8685 11.9237 66.9416 11.7465C67.0116 11.465 67.0116 11.427 66.6937 11.5346C66.5157 11.5694 65.8768 11.8541 65.2347 12.1704C64.3796 12.5595 63.9187 12.9138 63.3147 13.5148C62.8888 13.9735 62.4628 14.5049 62.3897 14.6821C62.3166 14.8592 62.2817 15.0015 62.2817 15.0015C62.3166 15.0015 62.2467 15.1439 62.1768 15.321C61.9638 15.6753 61.7508 16.8078 61.8557 16.8078C61.8907 16.8078 61.9256 17.1273 61.9256 17.5164C61.9256 18.2249 62.0687 18.614 62.2817 18.4717C62.3516 18.4369 62.8856 17.7979 63.4546 17.0577C64.0236 16.3175 64.5226 15.6437 64.5576 15.6057C64.6275 15.5709 64.7006 15.4286 64.7356 15.3242C64.8055 15.1819 64.8787 15.1123 64.9486 15.1471C64.9835 15.1819 65.1266 15.0775 65.2347 14.9351C65.3396 14.7232 65.3396 14.6884 65.2347 14.758C65.1266 14.8276 65.1266 14.7928 65.2347 14.546L65.2378 14.5429Z" fill="#D68CA9"/>
<path d="M86.2494 12.7745C86.2843 12.5974 86.2493 12.5626 86.0364 12.667C85.5023 12.9485 85.6454 12.7745 86.5704 11.9236C88.4554 10.1901 89.7714 8.13712 90.0892 6.36884C90.2672 5.37873 90.1592 3.96158 89.8763 3.96158C89.7332 3.96158 86.7834 5.83741 85.8234 6.54599C84.6155 7.4665 82.6224 10.0857 81.4495 12.3506C80.1335 14.9698 79.5296 17.2347 79.5296 19.7812C79.5296 20.629 79.5995 21.5147 79.6345 21.7266C79.6694 21.9386 79.7425 22.3276 79.7775 22.5744C79.8125 22.8211 79.8824 23.1058 79.9905 23.2102C80.0604 23.3178 80.1685 23.5297 80.2035 23.7068C80.2734 24.3775 80.3815 24.697 80.5944 24.8393C80.7025 24.9089 80.7724 25.0512 80.7724 25.1588C80.7724 25.3359 81.5894 26.1141 82.1933 26.5032C82.7623 26.8575 83.2232 26.8227 83.9702 26.2913C85.1432 25.5131 86.8501 22.9287 88.2011 19.8508C88.5221 19.1422 88.9481 18.364 89.1261 18.1521C89.4471 17.8326 89.552 17.7978 89.978 17.9054C90.2609 17.975 90.512 17.975 90.547 17.9054C90.69 17.6934 90.868 17.763 90.7949 18.0129C90.7483 18.1542 90.8193 18.1426 91.0079 17.9781C91.2558 17.7662 91.3289 17.7662 91.3989 17.9085C91.4688 18.0161 91.7549 18.0857 92.0028 18.1205C92.2857 18.1205 92.5368 18.1553 92.5718 18.228C92.6417 18.2628 92.7498 18.2628 92.8197 18.1932C93.0677 17.9813 93.5667 18.5823 93.7797 19.3953C93.9227 19.9963 93.9577 20.5973 93.8496 22.7231C93.7797 24.175 93.6716 26.4747 93.6367 27.8191C93.5667 29.4482 93.4936 30.3656 93.3887 30.4383C93.1757 30.6503 92.2158 30.9698 91.7517 30.9698C91.5037 30.9698 91.1477 30.9002 90.9348 30.8274C90.7218 30.7199 90.4007 30.6851 90.2609 30.7199C90.0479 30.7895 89.9049 30.6851 89.7618 30.4383C89.6188 30.2264 89.4408 30.1188 89.3359 30.1568C89.1229 30.2264 89.0498 29.7329 88.9449 28.0342C88.9099 27.6103 88.875 27.2213 88.875 27.1865C88.875 27.1517 88.449 27.506 87.95 27.9298C86.7421 28.9547 86.0999 29.3818 85.2131 29.6981C82.1901 30.761 79.4183 30.122 77.3204 27.9298C76.9644 27.5408 76.5034 26.9397 76.3254 26.6202C75.8995 25.7345 75.5435 24.4977 75.6865 24.3901C75.7914 24.3553 75.7564 24.2478 75.6166 24.1782C75.3686 24.0358 75.3305 23.7195 75.5816 23.6467C75.6897 23.6119 75.6897 23.5044 75.5117 23.3272C75.4036 23.1849 75.2637 22.9034 75.1906 22.6914C75.0476 22.16 75.0126 21.3818 75.1207 21.4514C75.1906 21.4862 75.1906 21.2395 75.1207 20.8852C74.9077 19.1169 75.2288 16.1782 75.8677 14.0556C76.6147 11.6863 78.2136 8.67804 79.9555 6.41313C81.5925 4.29056 84.5424 1.91809 86.3193 1.31707C87.9913 0.750837 90.0161 0.820429 91.5451 1.49421C93.3951 2.34197 94.5331 4.25576 94.5331 6.51752C94.5331 8.60529 93.287 11.1169 91.2272 13.2775C90.9062 13.6666 90.6233 13.986 90.6233 14.0556C90.6233 14.1252 90.4103 14.2676 90.1973 14.3751C89.6283 14.6598 88.1693 14.6946 87.4954 14.4099C86.7484 14.1284 86.0014 13.4894 86.1095 13.2427C86.1445 13.1351 86.2176 12.9232 86.2525 12.784L86.2494 12.7745Z" fill="#D68CA9"/>
<path d="M108.866 16.7729C109.152 20.7365 108.866 23.7796 108.049 26.2217C107.693 27.2466 106.59 29.4071 106.059 30.1505C104.956 31.6372 102.041 32.3806 99.835 31.672C97.0251 30.7863 95.9602 28.8061 95.9602 24.523C95.9602 23.4981 96.0301 22.4352 96.1033 22.1157C96.1382 21.7962 96.2813 20.7017 96.3512 19.6737C96.4211 18.6488 96.5292 17.7631 96.5991 17.7631C96.6691 17.7283 96.704 17.5859 96.6691 17.4088C96.5991 16.9849 97.2031 15.1438 97.699 14.3657C98.1599 13.6571 98.6939 13.1636 100.045 12.1704C101.148 11.3922 101.752 11.1075 102.604 11.0727C102.995 11.0727 103.208 11.0727 103.103 11.1075C102.995 11.1771 102.995 11.215 103.173 11.3542C103.421 11.5314 103.421 11.5662 103.173 11.4618C102.995 11.3922 102.925 11.427 102.995 11.5314C103.103 11.6737 104.025 11.8129 104.025 11.6737C104.025 11.6041 103.99 11.5662 103.917 11.5662C103.843 11.5662 103.704 11.4586 103.56 11.3542C103.372 11.2129 103.372 11.1771 103.56 11.2467C103.882 11.4238 104.199 11.3163 104.06 11.1043C103.951 10.9272 104.594 11.0695 105.411 11.3859C105.91 11.6326 106.014 11.7053 105.945 11.9173C105.875 12.1292 105.91 12.1292 106.088 11.9869C106.231 11.8445 106.301 11.8445 106.444 12.0217C106.587 12.1988 106.587 12.1988 106.374 12.1292C106.231 12.0944 106.161 12.0944 106.196 12.1292C106.231 12.1988 106.409 12.2716 106.587 12.2716C107.051 12.3791 108.116 13.5812 107.973 13.9007C107.938 14.043 107.973 14.0778 108.077 14.0778C108.147 14.043 108.255 14.1474 108.255 14.2898C108.29 14.4321 108.433 15.0331 108.576 15.5646C108.72 16.1308 108.859 16.6622 108.859 16.7666L108.866 16.7729ZM104.136 15.4285C103.815 14.2613 103.567 14.1189 103.068 14.7927C102.89 15.0047 102.642 15.359 102.464 15.5709C102.251 15.8556 101.682 16.9849 101.183 18.0825C101.113 18.2249 101.04 18.8259 101.005 19.3921C100.97 19.9932 100.862 20.8789 100.792 21.4103C100.579 22.7547 100.471 26.2217 100.649 27.215C100.827 28.2399 101.148 29.0212 101.326 28.9485C101.396 28.9485 101.717 28.5942 102 28.1703C102.712 27.2498 103.421 25.763 103.742 24.5262C104.489 21.8374 104.702 17.3423 104.133 15.4317L104.136 15.4285ZM105.487 11.9964C105.452 11.8192 105.309 11.7496 104.918 11.7117C104.349 11.6769 104.384 11.8192 105.023 12.066C105.236 12.1356 105.449 12.2083 105.487 12.2083V11.9964Z" fill="#D68CA9"/>
</svg>
