<svg width="24" height="25" viewBox="0 0 24 25" fill="none" xmlns="http://www.w3.org/2000/svg">
<g clip-path="url(#clip0_92_1065)">
<path d="M12 2.7793C14.717 2.7793 15.056 2.7893 16.122 2.8393C17.187 2.8893 17.912 3.0563 18.55 3.3043C19.21 3.5583 19.766 3.9023 20.322 4.4573C20.8305 4.95719 21.224 5.56189 21.475 6.2293C21.722 6.8663 21.89 7.5923 21.94 8.6573C21.987 9.7233 22 10.0623 22 12.7793C22 15.4963 21.99 15.8353 21.94 16.9013C21.89 17.9663 21.722 18.6913 21.475 19.3293C21.2247 19.9971 20.8311 20.6019 20.322 21.1013C19.822 21.6096 19.2173 22.003 18.55 22.2543C17.913 22.5013 17.187 22.6693 16.122 22.7193C15.056 22.7663 14.717 22.7793 12 22.7793C9.283 22.7793 8.944 22.7693 7.878 22.7193C6.813 22.6693 6.088 22.5013 5.45 22.2543C4.78233 22.0038 4.17753 21.6102 3.678 21.1013C3.16941 20.6015 2.77593 19.9968 2.525 19.3293C2.277 18.6923 2.11 17.9663 2.06 16.9013C2.013 15.8353 2 15.4963 2 12.7793C2 10.0623 2.01 9.7233 2.06 8.6573C2.11 7.5913 2.277 6.8673 2.525 6.2293C2.77524 5.56148 3.1688 4.95662 3.678 4.4573C4.17767 3.94853 4.78243 3.55503 5.45 3.3043C6.088 3.0563 6.812 2.8893 7.878 2.8393C8.944 2.7923 9.283 2.7793 12 2.7793ZM12 7.7793C10.6739 7.7793 9.40215 8.30608 8.46447 9.24376C7.52678 10.1814 7 11.4532 7 12.7793C7 14.1054 7.52678 15.3771 8.46447 16.3148C9.40215 17.2525 10.6739 17.7793 12 17.7793C13.3261 17.7793 14.5979 17.2525 15.5355 16.3148C16.4732 15.3771 17 14.1054 17 12.7793C17 11.4532 16.4732 10.1814 15.5355 9.24376C14.5979 8.30608 13.3261 7.7793 12 7.7793ZM18.5 7.5293C18.5 7.19778 18.3683 6.87983 18.1339 6.64541C17.8995 6.41099 17.5815 6.2793 17.25 6.2793C16.9185 6.2793 16.6005 6.41099 16.3661 6.64541C16.1317 6.87983 16 7.19778 16 7.5293C16 7.86082 16.1317 8.17876 16.3661 8.41318C16.6005 8.6476 16.9185 8.7793 17.25 8.7793C17.5815 8.7793 17.8995 8.6476 18.1339 8.41318C18.3683 8.17876 18.5 7.86082 18.5 7.5293ZM12 9.7793C12.7956 9.7793 13.5587 10.0954 14.1213 10.658C14.6839 11.2206 15 11.9836 15 12.7793C15 13.5749 14.6839 14.338 14.1213 14.9006C13.5587 15.4632 12.7956 15.7793 12 15.7793C11.2044 15.7793 10.4413 15.4632 9.87868 14.9006C9.31607 14.338 9 13.5749 9 12.7793C9 11.9836 9.31607 11.2206 9.87868 10.658C10.4413 10.0954 11.2044 9.7793 12 9.7793Z" fill="black"/>
</g>
<defs>
<clipPath id="clip0_92_1065">
<rect width="24" height="24" fill="white" transform="translate(0 0.779297)"/>
</clipPath>
</defs>
</svg>
