<svg width="193" height="48" viewBox="0 0 193 48" fill="none" xmlns="http://www.w3.org/2000/svg">
<path d="M0.5 46.9083C1.23051 46.8655 1.96003 46.8018 2.66267 46.6137C3.36631 46.4355 4.03313 46.1529 4.67008 45.8056C5.30804 45.4622 5.93504 45.0701 6.62574 44.7755C7.31246 44.4759 8.05094 44.2888 8.79339 44.1893C10.2733 44.0081 11.804 44.0539 13.263 44.5336C13.9896 44.7725 14.6584 45.1338 15.3013 45.4602C15.9452 45.7896 16.5852 46.0673 17.2609 46.2325C17.9357 46.3957 18.6324 46.4853 19.341 46.4793C20.0466 46.4903 20.7563 46.4475 21.435 46.3141C22.1178 46.1877 22.7667 45.9628 23.3966 45.6513C24.0276 45.3438 24.6586 44.9576 25.3613 44.6421C26.0599 44.3216 26.8203 44.1047 27.5826 43.9872C28.347 43.8887 29.1064 43.8509 29.8677 43.8917C30.6271 43.9355 31.4024 44.03 32.1469 44.2689C32.8933 44.4958 33.5919 44.8461 34.2359 45.1915C34.8798 45.5388 35.4949 45.8493 36.1487 46.0524C36.7986 46.2664 37.4883 46.3539 38.185 46.3987C38.8847 46.4415 39.5923 46.4077 40.279 46.3231C40.9637 46.2196 41.6206 46.0325 42.2586 45.7568C42.8975 45.4841 43.5235 45.1159 44.2122 44.7914C44.8989 44.464 45.6494 44.2161 46.4067 44.0898C47.1661 43.9554 47.9265 43.9186 48.6819 43.9484C49.4363 43.9614 50.2006 44.0808 50.9411 44.2798C51.6835 44.4809 52.3862 44.8123 53.0331 45.1666C53.683 45.5209 54.3 45.8683 54.9579 46.1141C56.2657 46.6077 57.7327 46.7082 59.1539 46.5968C59.8645 46.5371 60.5641 46.3908 61.2339 46.139C61.9057 45.8921 62.5437 45.5398 63.2095 45.2223C63.8743 44.9039 64.577 44.6391 65.3045 44.5048C66.031 44.3694 66.7685 44.3316 67.5 44.3575C66.034 44.3963 64.5909 44.7416 63.3299 45.4582C62.692 45.8026 62.065 46.1947 61.3752 46.4893C60.6885 46.7889 59.952 46.9829 59.2086 47.0835C57.7287 47.2586 56.197 47.2148 54.7389 46.7311C54.0124 46.4933 53.3426 46.133 52.6997 45.8056C52.0558 45.4751 51.4168 45.1975 50.741 45.0332C50.0663 44.873 49.3706 44.7795 48.662 44.7864C47.9563 44.7735 47.2467 44.8173 46.568 44.9506C45.8852 45.077 45.2363 45.301 44.6073 45.6135C43.9763 45.921 43.3454 46.3072 42.6427 46.6227C41.9441 46.9431 41.1827 47.1581 40.4213 47.2775C39.657 47.3761 38.8976 47.4149 38.1362 47.3731C37.3759 47.3293 36.6016 47.2347 35.8571 46.9959C35.1107 46.768 34.412 46.4186 33.7681 46.0723C33.1252 45.7239 32.5091 45.4144 31.8552 45.2114C31.2053 44.9984 30.5146 44.9108 29.818 44.866C29.1183 44.8233 28.4107 44.8571 27.724 44.9407C27.0392 45.0442 26.3814 45.2293 25.7444 45.505C25.1055 45.7767 24.4795 46.1459 23.7908 46.4704C23.105 46.7978 22.3546 47.0456 21.5962 47.172C20.8369 47.3064 20.0775 47.3432 19.3221 47.3134C18.5677 47.2994 17.8034 47.184 17.0639 46.9829C16.3214 46.7809 15.6198 46.4515 14.9719 46.0972C14.321 45.7439 13.7049 45.3935 13.0481 45.1477C11.7383 44.658 10.2723 44.5565 8.85211 44.673C8.1415 44.7317 7.43886 44.871 6.77005 45.1228C6.09826 45.3696 5.46031 45.723 4.79349 46.0394C4.12867 46.3589 3.42503 46.6167 2.69949 46.759C1.97296 46.9023 1.23449 46.9143 0.503981 46.9073" fill="#29121C"/>
<path d="M46.0932 34.7802H41.2324L38.7104 37.8714H43.5722L46.0932 34.7802Z" fill="#29121C"/>
<path d="M25.9057 37.8714L28.4277 34.7802H23.5659L21.0439 37.8714H25.9057Z" fill="#29121C"/>
<path d="M19.2007 38.8716H8.94367C9.29798 39.2976 9.68015 39.6997 10.0872 40.0769C9.65328 40.0858 9.22135 40.1187 8.79339 40.1714C8.05094 40.271 7.31346 40.4571 6.62574 40.7576C5.93604 41.0522 5.30804 41.4434 4.67008 41.7867C4.03313 42.1341 3.36631 42.4167 2.66267 42.5949C1.96102 42.784 1.23051 42.8467 0.5 42.8895C1.23051 42.8964 1.96898 42.8835 2.69551 42.7412C3.42105 42.5998 4.12469 42.3411 4.78951 42.0216C5.45533 41.7051 6.09329 41.3518 6.76607 41.105C7.43587 40.8532 8.13852 40.7138 8.84813 40.6551C10.2683 40.5397 11.7343 40.6402 13.0441 41.1309C13.701 41.3767 14.318 41.727 14.9679 42.0803C15.3371 42.2824 15.7243 42.4754 16.1254 42.6416L19.2007 38.8716Z" fill="#29121C"/>
<path d="M39.0887 43.3662L42.7561 38.8716H37.8944L34.8539 42.5978C35.1763 42.7422 35.5098 42.8735 35.8531 42.978C36.5985 43.2169 37.3729 43.3114 38.1322 43.3552C38.4507 43.3721 38.7692 43.3751 39.0887 43.3662Z" fill="#29121C"/>
<path d="M29.379 40.8323L30.9784 38.8716H26.1166L22.897 42.8178C23.2025 42.7113 23.5001 42.5899 23.7867 42.4525C24.4754 42.1281 25.1024 41.7598 25.7404 41.4872C26.3774 41.2115 27.0352 41.0264 27.7199 40.9228C28.2643 40.8562 28.8217 40.8223 29.378 40.8313L29.379 40.8323Z" fill="#29121C"/>
<path d="M34.1186 42.2405L36.8675 38.8706H32.0057L30.3566 40.8929C30.8681 40.9467 31.3717 41.0353 31.8524 41.1935C32.5063 41.3965 33.1224 41.7061 33.7653 42.0544C33.8807 42.1161 33.9992 42.1788 34.1186 42.2405Z" fill="#29121C"/>
<path d="M21.5952 43.1541L25.0895 38.8706H20.2277L16.9205 42.9242C16.9663 42.9382 17.0131 42.9521 17.0589 42.9651C17.7993 43.1661 18.5637 43.2815 19.3171 43.2955C20.0725 43.3263 20.8328 43.2885 21.5912 43.1541C21.5912 43.1541 21.5922 43.1541 21.5932 43.1541H21.5952Z" fill="#29121C"/>
<path d="M65.3026 40.4869C64.5751 40.6213 63.8724 40.886 63.2076 41.2045C62.6871 41.4523 62.1825 41.722 61.6669 41.946C60.9046 40.9816 60.2427 39.9535 59.6993 38.8716H43.7834L40.1796 43.2885C40.2592 43.2796 40.3378 43.2706 40.4174 43.2597C41.1788 43.1413 41.9402 42.9263 42.6388 42.6048C43.3415 42.2903 43.9725 41.9032 44.6034 41.5956C45.2334 41.2841 45.8813 41.0592 46.5641 40.9328C47.2428 40.7994 47.9524 40.7556 48.6581 40.7686C49.3677 40.7606 50.0624 40.8542 50.7381 41.0154C51.4139 41.1796 52.0539 41.4583 52.6968 41.7877C53.3397 42.1152 54.0095 42.4754 54.736 42.7133C56.1941 43.197 57.7258 43.2418 59.2057 43.0656C59.9481 42.9651 60.6856 42.77 61.3723 42.4714C62.0621 42.1769 62.6891 41.7847 63.327 41.4404C64.588 40.7238 66.0311 40.3784 67.4971 40.3396C66.7656 40.3138 66.0281 40.3516 65.3016 40.4869H65.3026Z" fill="#29121C"/>
<path d="M8.19328 37.8714H20.0178L22.5398 34.7811H15.6915C15.0555 34.7811 14.8485 33.9272 15.4118 33.6336C17.7795 32.4015 19.4057 31.036 20.4557 29.9542C20.5821 29.991 20.7234 29.9731 20.8389 29.8895L21.2828 29.569C21.4311 29.4626 21.5843 29.363 21.7436 29.2754C25.6061 27.1426 29.6816 26.4141 33.4148 26.3972V34.182C33.4148 34.5134 33.1471 34.7802 32.8157 34.7802H29.4547L26.9328 37.8704H31.7946L34.4947 34.5602C34.4021 34.4477 34.3593 34.3034 34.3593 34.1571L34.3623 26.4071C37.36 26.4888 40.0959 27.0063 42.2675 27.5815C41.0812 29.5889 39.0061 32.2691 35.5695 34.5035L32.8226 37.8704H37.6844L40.2064 34.7802H37.5749C37.0027 34.7802 36.7588 34.0556 37.2137 33.7053C39.864 31.6601 41.548 29.4048 42.5681 27.6621C44.4571 28.1787 45.8863 28.7281 46.6397 29.0416C46.769 29.0953 46.9054 29.0993 47.0298 29.0635C47.4339 30.5623 48.1574 32.302 49.4512 33.9014C49.7369 34.2557 49.492 34.7802 49.0372 34.7802H47.1224L44.6004 37.8704H59.2365C58.2512 35.6002 57.7357 33.141 57.7357 30.632V29.3003C58.4094 29.1341 58.9071 28.526 58.8921 27.7975C58.8742 27.0083 58.2263 26.3474 57.4371 26.3156C56.5712 26.2817 55.8596 26.9724 55.8596 27.8313C55.8596 28.4016 56.1771 28.8923 56.6429 29.151C56.2488 32.09 53.899 34.4059 50.9431 34.7384C50.761 34.7593 50.5778 34.6985 50.4495 34.5692C48.665 32.7618 47.7573 30.6559 47.2955 28.9012C47.3572 28.8355 47.405 28.7559 47.4329 28.6624C49.8742 20.3033 47.8001 12.7852 47.3881 11.4446C47.3463 11.3093 47.2577 11.1928 47.1373 11.1172C45.2493 9.92984 43.3275 8.90971 41.4166 8.0339C41.4166 8.0339 41.4176 8.0339 41.4186 8.0339L34.1792 0.730776C34.1035 0.653147 33.998 0.610352 33.8895 0.610352C33.7602 0.610352 33.6387 0.671062 33.5631 0.773572L30.857 4.40921C30.857 4.40921 30.86 4.4112 30.861 4.4112C25.6151 3.14325 21.3057 2.81383 19.2664 2.72923C18.7708 2.70833 18.4692 3.27264 18.7668 3.67073C21.4957 7.31831 22.6045 11.358 22.8493 15.1668L10.8516 31.2829C10.5809 31.6461 10.0255 31.5974 9.81752 31.1953C9.34279 30.2826 9.07407 29.2446 9.07407 28.1429C9.07407 27.0411 9.26416 25.9523 9.63141 24.9222C9.75383 24.5789 10.0753 24.349 10.4396 24.349H10.4455C11.5602 24.349 12.4569 23.4194 12.4062 22.2948C12.3604 21.2946 11.5383 20.4725 10.5381 20.4267C9.41146 20.374 8.4829 21.2727 8.4829 22.3873C8.4829 22.5844 8.51574 22.7735 8.57147 22.9526C8.65507 23.2174 8.61029 23.505 8.43711 23.724C7.78722 24.5411 7.25377 25.4368 6.85965 26.3892C6.29933 27.7487 5.99976 29.2187 5.99976 30.7136C5.99976 33.3669 6.80889 35.8311 8.19328 37.8724M34.3593 1.89521C34.3593 1.67327 34.627 1.5638 34.7833 1.72204L40.6732 7.70049C38.5254 6.755 36.3986 5.98767 34.3593 5.36664V1.89521ZM32.967 2.07635C33.1093 1.88427 33.4138 1.98578 33.4138 2.22464V5.08598C32.6515 4.86702 31.903 4.66897 31.1715 4.48783L32.967 2.07535V2.07635ZM20.9165 27.9747C20.7543 28.4365 20.5204 28.8684 20.2228 29.2565C20.1054 29.4098 20.1004 29.6218 20.2099 29.78C20.2029 29.7731 20.195 29.7661 20.189 29.7581C18.8982 31.0669 16.7554 32.7986 13.4999 34.2089C13.3407 34.2776 13.1596 34.2746 13.0013 34.2039C12.2569 33.8705 11.5841 33.4057 11.0168 32.8374C10.9521 32.7737 10.8894 32.708 10.8287 32.6414C10.6316 32.4254 10.6167 32.1 10.7909 31.8651L22.8732 15.6356C23.107 20.6984 21.853 25.3054 20.9155 27.9747H20.9165ZM43.838 24.7361L43.7813 24.7132L43.9236 24.761L43.838 24.7361ZM40.2392 13.5724C40.3905 14.3428 40.503 15.1201 40.5975 15.9003C40.7637 15.9401 40.9299 15.9799 41.0961 16.0208C42.8199 16.4457 44.5168 16.9822 46.1749 17.6072C45.313 17.3952 44.471 17.1215 43.6051 16.9354C42.7502 16.7105 41.8874 16.5174 41.0235 16.3343C40.8961 16.3074 40.7677 16.2815 40.6403 16.2546C40.6672 16.4925 40.694 16.7304 40.7189 16.9692C40.8095 18.1108 40.8563 19.2563 40.8254 20.4008C40.8204 20.6268 40.8105 20.8527 40.7986 21.0776C41.537 21.1881 42.2685 21.3423 43 21.4876C43.845 21.6708 44.677 21.9116 45.5081 22.1395C43.9326 21.8519 42.3641 21.5603 40.7796 21.3891C40.7229 22.2022 40.6194 23.0124 40.4751 23.8125C40.4741 23.2393 40.5318 22.674 40.5129 22.1037C40.5199 21.8559 40.5219 21.6091 40.5209 21.3622C40.4821 21.3583 40.4442 21.3533 40.4054 21.3503C38.9006 21.1731 37.3878 21.0816 35.8751 21.0587C35.7974 21.9982 35.6531 22.9307 35.471 23.8514C35.4939 23.1895 35.5914 22.5386 35.5855 21.8788L35.6173 21.0567C35.4999 21.0557 35.3834 21.0537 35.266 21.0537C33.5492 21.0119 31.8324 21.1224 30.1225 21.2776C30.026 21.2866 29.9305 21.2975 29.8339 21.3075C29.809 21.4667 29.7852 21.625 29.7633 21.7842C29.605 22.5386 29.4368 23.29 29.2557 24.0365L29.5592 21.7534C29.5712 21.612 29.5841 21.4717 29.598 21.3304C28.0634 21.4936 26.5337 21.7255 25.0229 22.0699C26.5168 21.5673 28.0684 21.2508 29.6289 21.0229C29.6836 20.5043 29.7404 19.9868 29.7593 19.4663C29.8489 17.9406 29.8747 16.4119 29.7563 14.8911C29.7493 14.7787 29.7394 14.6662 29.7314 14.5528C29.1283 14.4861 28.5252 14.4214 27.9211 14.3657C27.0413 14.2691 26.1585 14.2004 25.2757 14.1278C26.7546 14.1019 28.2336 14.1616 29.7095 14.2621C29.5951 12.9534 29.3881 11.6536 29.0855 10.3747C28.9561 9.8333 28.8128 9.29388 28.6416 8.76341C27.1239 8.48375 25.5962 8.24887 24.0575 8.07769C25.5583 8.11053 27.0552 8.25783 28.5431 8.46782C28.5102 8.37128 28.4754 8.27574 28.4406 8.1792C28.1928 7.45665 27.8972 6.74903 27.5299 6.07326C28.0494 6.82666 28.4575 7.64973 28.7929 8.50365C29.1432 8.55541 29.4935 8.60815 29.8429 8.66588C31.3268 8.90772 32.7968 9.2262 34.2548 9.59444C34.1473 9.14559 34.0299 8.69872 33.9095 8.25086C34.1005 8.70668 34.2717 9.17047 34.429 9.63823C34.7962 9.73179 35.1625 9.82833 35.5277 9.92785C36.8842 10.317 38.2318 10.743 39.5565 11.2306C39.5017 10.9042 39.446 10.5777 39.3883 10.2503C39.5037 10.5917 39.6082 10.937 39.7048 11.2844C40.1526 11.4516 40.5975 11.6247 41.0384 11.8079C42.8458 12.5205 44.5845 13.3943 46.2754 14.3368C44.5049 13.5496 42.7433 12.7544 40.922 12.1084C40.5567 11.9691 40.1885 11.8387 39.8192 11.7093C39.9785 12.3244 40.1158 12.9464 40.2392 13.5695V13.5724Z" fill="#29121C"/>
<path d="M35.7079 15.355C35.7338 15.551 35.7597 15.7471 35.7835 15.9432C35.9169 17.2609 35.9826 18.5885 35.9348 19.9132C35.9298 20.159 35.9179 20.4049 35.903 20.6497C37.4227 20.6965 38.9425 20.793 40.4443 21.0299C40.4682 21.0329 40.4921 21.0368 40.5159 21.0398C40.513 20.8268 40.508 20.6149 40.501 20.4019C40.4652 19.2683 40.4224 18.1357 40.3 17.0071C40.2791 16.7284 40.2552 16.4498 40.2283 16.1711C38.7623 15.8705 37.2933 15.5869 35.8114 15.3729C35.7766 15.3669 35.7417 15.3619 35.7069 15.356L35.7079 15.355Z" fill="#29121C"/>
<path d="M30.5923 14.3269C32.1469 14.4503 33.6955 14.6444 35.2392 14.8663C35.1197 13.9397 34.9655 13.0171 34.7923 12.0985C34.6709 11.4536 34.5375 10.8097 34.3862 10.1697C34.3763 10.1259 34.3663 10.0822 34.3564 10.0374C32.8466 9.63131 31.3189 9.28894 29.7852 8.9834C29.4946 8.92568 29.203 8.86895 28.9114 8.81421C29.0925 9.30088 29.2518 9.79652 29.3971 10.2941C29.7693 11.5999 29.9852 12.9425 30.1226 14.292C30.2788 14.304 30.4361 14.3149 30.5923 14.3269Z" fill="#29121C"/>
<path d="M35.3665 15.9879C35.3446 15.754 35.3187 15.5201 35.2908 15.2872C33.7203 15.0354 32.1409 14.8344 30.5604 14.6463C30.4241 14.6304 30.2877 14.6155 30.1514 14.6005C30.1594 14.6881 30.1683 14.7747 30.1763 14.8623C30.2111 15.6356 30.2479 16.4079 30.2171 17.1802C30.2191 17.9535 30.1574 18.7238 30.0827 19.4922C30.0379 19.9928 29.9613 20.4894 29.8837 20.986C29.9513 20.9771 30.018 20.9661 30.0857 20.9572C31.8025 20.7312 33.5362 20.6267 35.2689 20.6337C35.3864 20.6367 35.5038 20.6397 35.6203 20.6427L35.6123 19.9102C35.5924 18.5994 35.5317 17.2897 35.3665 15.9889V15.9879Z" fill="#29121C"/>
<path d="M38.1899 11.153C37.2663 10.8744 36.3487 10.5728 35.4142 10.3329C35.1355 10.2513 34.8559 10.1727 34.5752 10.0961C34.7742 10.734 34.9484 11.3799 35.1057 12.0298C35.3376 12.9843 35.5097 13.9527 35.6481 14.925C35.7247 14.936 35.8003 14.9469 35.877 14.9588C37.3231 15.1957 38.7622 15.4744 40.1904 15.8048C40.1127 15.0773 40.0182 14.3507 39.9217 13.6252C39.8311 12.9644 39.7306 12.3035 39.6231 11.6437C39.1464 11.4785 38.6677 11.3182 38.1899 11.153Z" fill="#29121C"/>
<path d="M98.7284 37.6409L95.8118 30.5894H86.1018L83.0751 37.6409H77.5L88.8704 10.3591H92.8572L104.302 37.6409H98.7265H98.7284ZM90.8648 17.4846L87.9482 25.7543H93.7814L90.8648 17.4846Z" fill="#29121C"/>
<path d="M121.285 37.6409L114.124 27.1927V37.6409H109.067V10.3591H116.93C120.659 10.3591 122.615 10.8753 124.388 12.3896C126.27 13.9759 127.266 16.3404 127.266 19.1089C127.266 23.3539 125.052 26.3445 120.141 27.5627L127.524 37.6409H121.285ZM116.374 15.1961H114.122V23.3918H116.596C120.509 23.3918 122.171 22.1356 122.171 19.257C122.171 16.8204 121.175 15.1961 116.376 15.1961" fill="#29121C"/>
<path d="M145.91 38.121C137.531 38.121 131.069 31.9196 131.069 23.944C131.069 15.9684 137.457 9.87903 145.43 9.87903C151.373 9.87903 156.985 13.4598 158.757 18.3708H152.814C151.115 16.0083 148.495 14.7521 145.32 14.7521C139.931 14.7521 136.164 18.8869 136.164 24.018C136.164 29.1491 140.261 33.2479 145.614 33.2479C149.195 33.2479 152.148 31.4756 153.626 28.4489H142.33V23.7239H160.159V24.3881C160.159 31.8076 153.958 38.121 145.91 38.121Z" fill="#29121C"/>
<path d="M178.435 38.121C170.423 38.121 164.074 31.8817 164.074 24.018C164.074 16.1544 170.349 9.87903 178.471 9.87903C186.593 9.87903 192.5 16.1923 192.5 23.982C192.5 31.7716 186.373 38.121 178.435 38.121ZM178.399 14.7521C173.156 14.7521 169.169 18.7389 169.169 24.018C169.169 29.2971 173.23 33.2479 178.399 33.2479C183.568 33.2479 187.407 29.2971 187.407 24.056C187.407 18.8148 183.456 14.7521 178.399 14.7521Z" fill="#29121C"/>
</svg>
