<svg width="24" height="25" viewBox="0 0 24 25" fill="none" xmlns="http://www.w3.org/2000/svg">
<path d="M19.2683 9.10372V11.3822C19.2683 11.3822 18.2338 11.3399 17.4675 11.1366C16.3981 10.8523 15.7104 10.4162 15.7104 10.4162C15.7104 10.4162 15.236 10.1052 15.1976 10.0832V16.0901C15.1976 16.4246 15.1098 17.2601 14.8422 17.9563C14.4928 18.8679 13.9537 19.4661 13.8546 19.5883C13.8546 19.5883 13.1985 20.3968 12.042 20.9413C10.9996 21.4325 10.0841 21.42 9.81013 21.4325C9.81013 21.4325 8.2279 21.4979 6.80346 20.5322L6.79636 20.5269C6.64597 20.375 6.5044 20.2145 6.37237 20.0464C5.91781 19.4682 5.63918 18.7844 5.56917 18.5893C5.56905 18.5885 5.56905 18.5876 5.56917 18.5868C5.45651 18.2478 5.21981 17.4335 5.25215 16.6449C5.30937 15.2535 5.7785 14.3995 5.90253 14.1856C6.23103 13.6021 6.65827 13.0801 7.16526 12.6428C7.61264 12.2654 8.11974 11.9651 8.66575 11.7543C9.256 11.5067 9.88806 11.374 10.528 11.3633V13.6699C10.528 13.6699 9.35735 13.2825 8.42052 13.9684C7.76552 14.4759 7.41795 14.971 7.31559 15.8552C7.31133 16.5059 7.4709 17.4268 8.34624 18.0409C8.44836 18.1084 8.54858 18.1684 8.64691 18.2207C8.79983 18.4281 8.98596 18.6089 9.19778 18.7556C10.0529 19.3203 10.7693 19.3598 11.6856 18.993C12.2965 18.7478 12.7564 18.1952 12.9696 17.5828C13.1036 17.2004 13.1018 16.8155 13.1018 16.4175V5.09448H15.2342C15.3223 5.61727 15.5661 6.36147 16.2108 7.09857C16.4695 7.37688 16.7607 7.62294 17.0784 7.8314C17.1722 7.93269 17.652 8.43344 18.2679 8.74086C18.5863 8.89977 18.922 9.02152 19.2683 9.10372Z" fill="black"/>
<path d="M8.66579 11.7544C8.11978 11.9652 7.61269 12.2655 7.1653 12.6428C6.65815 13.0812 6.23101 13.6043 5.90293 14.1888C5.77889 14.4021 5.30977 15.2568 5.25255 16.6482C5.22021 17.4368 5.4569 18.251 5.56957 18.5901C5.56944 18.5909 5.56944 18.5917 5.56957 18.5926C5.64064 18.7859 5.91821 19.4697 6.37276 20.0497C6.5048 20.2178 6.64636 20.3782 6.79675 20.5302C6.3149 20.1969 5.88517 19.794 5.52159 19.3346C5.07094 18.7614 4.79302 18.0847 4.72052 17.885C4.72043 17.8835 4.72043 17.8821 4.72052 17.8807V17.8782C4.6075 17.5395 4.3701 16.7249 4.40315 15.9353C4.46037 14.5439 4.92949 13.6898 5.05353 13.4759C5.38151 12.8913 5.80867 12.3682 6.3159 11.9299C6.76319 11.5524 7.27031 11.2521 7.81639 11.0414C8.157 10.9001 8.51184 10.7958 8.87476 10.7305C9.42171 10.635 9.98032 10.6267 10.5299 10.7059V11.3634C9.88928 11.3739 9.2566 11.5066 8.66579 11.7544Z" fill="black"/>
<path d="M15.2361 5.09445H13.1037V16.4178C13.1037 16.8158 13.1037 17.1997 12.9715 17.5831C12.7561 18.1951 12.298 18.7478 11.6874 18.993C10.7708 19.3612 10.0544 19.3203 9.19963 18.7556C8.98745 18.6095 8.80084 18.4294 8.64734 18.2225C9.37555 18.6109 10.0273 18.6042 10.8348 18.2801C11.445 18.0348 11.9038 17.4822 12.1185 16.8698C12.2528 16.4874 12.2511 16.1025 12.2511 15.7049V4.37939H15.1955C15.1955 4.37939 15.1625 4.66087 15.2361 5.09445ZM19.2684 8.47358V9.10369C18.9227 9.02136 18.5876 8.89961 18.2697 8.74083C17.6538 8.43342 17.174 7.93266 17.0802 7.83137C17.1891 7.90285 17.3021 7.96788 17.4186 8.02613C18.1674 8.40001 18.9048 8.5116 19.2684 8.47358Z" fill="black"/>
</svg>
